<?xml version="1.0" standalone="no"?><!DOCTYPE svg PUBLIC "-//W3C//DTD SVG 1.1//EN"
  "http://www.w3.org/Graphics/SVG/1.1/DTD/svg11.dtd">
<svg t="1640871179711" class="icon" viewBox="0 0 1027 1024" version="1.1" xmlns="http://www.w3.org/2000/svg" p-id="3441"
     xmlns:xlink="http://www.w3.org/1999/xlink" width="200.5859375" height="200">
  <path
    d="M189.4 794.6c-10.2 0-20.5-3.9-28.3-11.7-15.6-15.6-15.6-40.9 0-56.6L408 479.4 160.5 231.9c-15.6-15.6-15.6-40.9 0-56.6 15.6-15.6 40.9-15.6 56.6 0l275.8 275.8c7.5 7.5 11.7 17.7 11.7 28.3 0 10.6-4.2 20.8-11.7 28.3L217.7 782.9C209.9 790.7 199.6 794.6 189.4 794.6zM557.6 794.6c-10.2 0-20.5-3.9-28.3-11.7-15.6-15.6-15.6-40.9 0-56.6l246.9-246.9L528.7 231.9c-15.6-15.6-15.6-40.9 0-56.6 15.6-15.6 40.9-15.6 56.6 0l275.8 275.8c15.6 15.6 15.6 40.9 0 56.6L585.9 782.9C578.1 790.7 567.8 794.6 557.6 794.6z"
    p-id="3442" fill="currentColor"></path>
</svg>
